# xmcd
#
# Track frame offsets: 
#        150
#        13493
#        27343
#        38968
#        49696
#        62346
#        77453
#        87303
#        100248
#        105586
#        116387
#        128702
#        138760
#        151623
#        163087
#        177025
#        191533
#        205796
#        220005
#        231421
#        240864
#        254855
#        266266
#        277730
#        288941
#        299180
#
# Disc length: 4149 seconds
#
# Revision: 0
# Processed by: cddbd v1.5.2PL0 Copyright (c) Steve Scherf et al.
# Submitted via: ExactAudioCopyFreeDBPlugin 1.0
#
DISCID=6310331a
DTITLE=Lefty Frizzell - The One and Only
DYEAR=1900
DGENRE=Country
TTITLE0=If You've Got the Money Honey (I've Got the Time)
TTITLE1=Mom and Dad's Waltz
TTITLE2=Signed, Sealed and Delivered
TTITLE3=Nobody Knows But Me
TTITLE4=Release Me
TTITLE5=Why Should I Be Lonely?
TTITLE6=Always Late (With Your Kisses)
TTITLE7=I Love You A Thousand Ways
TTITLE8=My Bucket's Got A Hole In It
TTITLE9=It Is Only That You're Lonely
TTITLE10=I Want To Be With You Always
TTITLE11=If You're Ever Lonely Darling
TTITLE12=I Love You (Though You're No Good)
TTITLE13=Blue Yodel #2
TTITLE14=I've Got Reasons To Hate You
TTITLE15=Blue Yodel #6
TTITLE16=Never No Mo' Blues
TTITLE17=The Long Black Veil
TTITLE18=You're Humbuggin' Me
TTITLE19=Just Can't Live That Fast Anymore
TTITLE20=Run 'Em Off
TTITLE21=Time Out For the Blues
TTITLE22=I Won't Be Good For Nothin'
TTITLE23=No One To Talk To (But the Blues)
TTITLE24=(Honey, Baby, Hurry!) Bring Your Sweet Self Back To Me
TTITLE25=Whatcha Gonna Do Leroy
EXTD=
EXTT0=
EXTT1=
EXTT2=
EXTT3=
EXTT4=
EXTT5=
EXTT6=
EXTT7=
EXTT8=
EXTT9=
EXTT10=
EXTT11=
EXTT12=
EXTT13=
EXTT14=
EXTT15=
EXTT16=
EXTT17=
EXTT18=
EXTT19=
EXTT20=
EXTT21=
EXTT22=
EXTT23=
EXTT24=
EXTT25=
PLAYORDER=
